# Octodraw OBJ export
# triangles: 100
# vertices: 300
# normals: 100
o octodraw_mesh
v -30.944626 33.000000 0.000122
v -41.159939 33.000000 0.000122
v -41.159939 32.999878 82.000122
vn 0.000000 1.000000 0.000001
f 1//1 2//1 3//1
v -41.159939 33.000000 0.000122
v -50.000000 32.999878 82.000122
v -41.159939 32.999878 82.000122
vn 0.000000 1.000000 0.000001
f 4//2 5//2 6//2
v -30.944626 33.000000 0.000122
v -41.159939 32.999878 82.000122
v -30.944626 32.999878 82.000122
vn 0.000000 1.000000 0.000001
f 7//3 8//3 9//3
v -41.159939 33.000000 0.000122
v -50.000000 33.000000 0.000122
v -50.000000 32.999878 82.000122
vn 0.000000 1.000000 0.000001
f 10//4 11//4 12//4
v -50.000000 33.000000 0.000122
v -58.840057 32.999878 82.000122
v -50.000000 32.999878 82.000122
vn 0.000000 1.000000 0.000001
f 13//5 14//5 15//5
v -50.000000 33.000000 0.000122
v -58.840057 33.000000 0.000122
v -58.840057 32.999878 82.000122
vn 0.000000 1.000000 0.000001
f 16//6 17//6 18//6
v -58.840057 33.000000 0.000122
v -69.055359 32.999878 82.000122
v -58.840057 32.999878 82.000122
vn 0.000000 1.000000 0.000001
f 19//7 20//7 21//7
v -58.840057 33.000000 0.000122
v -69.055359 33.000000 0.000122
v -69.055359 32.999878 82.000122
vn 0.000000 1.000000 0.000001
f 22//8 23//8 24//8
v -69.055359 33.000000 0.000122
v -82.987335 32.999878 82.000122
v -69.055359 32.999878 82.000122
vn 0.000000 1.000000 0.000001
f 25//9 26//9 27//9
v -69.055359 33.000000 0.000122
v -82.987335 33.000000 0.000122
v -82.987335 32.999878 82.000122
vn 0.000000 1.000000 0.000001
f 28//10 29//10 30//10
v -41.159939 33.000000 0.000122
v -30.944626 33.000000 0.000122
v -36.998558 22.515825 0.000122
vn 0.000000 0.000000 -1.000000
f 31//11 32//11 33//11
v -30.944626 33.000000 0.000122
v -31.611698 18.381247 0.000122
v -36.998558 22.515825 0.000122
vn 0.000000 0.000000 -1.000000
f 34//12 35//12 36//12
v -41.159939 33.000000 0.000122
v -36.998558 22.515825 0.000122
v -43.272308 25.114502 0.000122
vn 0.000000 0.000000 -1.000000
f 37//13 38//13 39//13
v -50.000000 32.999878 82.000122
v -43.272308 25.114380 82.000122
v -41.159939 32.999878 82.000122
vn 0.000000 0.000000 1.000000
f 40//14 41//14 42//14
v -41.159939 32.999878 82.000122
v -36.998558 22.515703 82.000122
v -30.944626 32.999878 82.000122
vn 0.000000 0.000000 1.000000
f 43//15 44//15 45//15
v -17.000000 32.987335 0.000122
v -30.944626 33.000000 0.000122
v -30.944626 32.999878 82.000122
vn 0.000908 1.000000 0.000001
f 46//16 47//16 48//16
v -30.944626 33.000000 0.000122
v -17.000000 32.987335 0.000122
v -31.611698 18.381247 0.000122
vn 0.000000 0.000000 -1.000000
f 49//17 50//17 51//17
v -36.998558 22.515825 0.000122
v -31.611698 18.381247 0.000122
v -31.611698 18.381124 82.000122
vn -0.608863 -0.793275 -0.000001
f 52//18 53//18 54//18
v -43.272308 25.114502 0.000122
v -36.998558 22.515825 0.000122
v -36.998558 22.515703 82.000122
vn -0.382684 -0.923879 -0.000001
f 55//19 56//19 57//19
v -50.000000 33.000000 0.000122
v -41.159939 33.000000 0.000122
v -43.272308 25.114502 0.000122
vn 0.000000 0.000000 -1.000000
f 58//20 59//20 60//20
v -50.000000 32.999878 82.000122
v -50.000000 25.999878 82.000122
v -43.272308 25.114380 82.000122
vn 0.000000 0.000000 1.000000
f 61//21 62//21 63//21
v -41.159939 32.999878 82.000122
v -43.272308 25.114380 82.000122
v -36.998558 22.515703 82.000122
vn 0.000000 0.000000 1.000000
f 64//22 65//22 66//22
v -30.944626 32.999878 82.000122
v -36.998558 22.515703 82.000122
v -31.611698 18.381124 82.000122
vn 0.000000 0.000000 1.000000
f 67//23 68//23 69//23
v -17.000000 32.987335 0.000122
v -30.944626 32.999878 82.000122
v -17.000000 32.987213 82.000122
vn 0.000908 1.000000 0.000001
f 70//24 71//24 72//24
v -17.000000 32.987335 0.000122
v -27.484169 13.001432 0.000122
v -31.611698 18.381247 0.000122
vn 0.000000 0.000000 -1.000000
f 73//25 74//25 75//25
v -31.611698 18.381247 0.000122
v -27.484169 13.001310 82.000122
v -31.611698 18.381124 82.000122
vn -0.793392 -0.608711 -0.000001
f 76//26 77//26 78//26
v -36.998558 22.515825 0.000122
v -31.611698 18.381124 82.000122
v -36.998558 22.515703 82.000122
vn -0.608863 -0.793275 -0.000001
f 79//27 80//27 81//27
v -43.272308 25.114502 0.000122
v -36.998558 22.515703 82.000122
v -43.272308 25.114380 82.000122
vn -0.382684 -0.923879 -0.000001
f 82//28 83//28 84//28
v -50.000000 33.000000 0.000122
v -43.272308 25.114502 0.000122
v -50.000000 26.000000 0.000122
vn 0.000000 0.000000 -1.000000
f 85//29 86//29 87//29
v -58.840057 32.999878 82.000122
v -50.000000 25.999878 82.000122
v -50.000000 32.999878 82.000122
vn 0.000000 0.000000 1.000000
f 88//30 89//30 90//30
v -50.000000 26.000000 0.000122
v -43.272308 25.114380 82.000122
v -50.000000 25.999878 82.000122
vn -0.130494 -0.991449 -0.000001
f 91//31 92//31 93//31
v -30.944626 32.999878 82.000122
v -31.611698 18.381124 82.000122
v -17.000000 32.987213 82.000122
vn 0.000000 0.000000 1.000000
f 94//32 95//32 96//32
v -17.000000 19.055361 0.000122
v -17.000000 32.987335 0.000122
v -17.000000 32.987213 82.000122
vn 1.000000 0.000000 0.000000
f 97//33 98//33 99//33
v -17.000000 32.987335 0.000122
v -17.000000 19.055361 0.000122
v -27.484169 13.001432 0.000122
vn 0.000000 0.000000 -1.000000
f 100//34 101//34 102//34
v -31.611698 18.381247 0.000122
v -27.484169 13.001432 0.000122
v -27.484169 13.001310 82.000122
vn -0.793392 -0.608711 -0.000001
f 103//35 104//35 105//35
v -17.000000 32.987213 82.000122
v -31.611698 18.381124 82.000122
v -27.484169 13.001310 82.000122
vn 0.000000 0.000000 1.000000
f 106//36 107//36 108//36
v -50.000000 26.000000 0.000122
v -43.272308 25.114502 0.000122
v -43.272308 25.114380 82.000122
vn -0.130494 -0.991449 -0.000001
f 109//37 110//37 111//37
v -58.840057 33.000000 0.000122
v -50.000000 33.000000 0.000122
v -50.000000 26.000000 0.000122
vn 0.000000 0.000000 -1.000000
f 112//38 113//38 114//38
v -58.840057 32.999878 82.000122
v -56.727684 25.114380 82.000122
v -50.000000 25.999878 82.000122
vn 0.000000 0.000000 1.000000
f 115//39 116//39 117//39
v -56.727684 25.114502 0.000122
v -50.000000 26.000000 0.000122
v -50.000000 25.999878 82.000122
vn 0.130495 -0.991449 -0.000001
f 118//40 119//40 120//40
v -17.000000 19.055361 0.000122
v -17.000000 32.987213 82.000122
v -17.000000 19.055239 82.000122
vn 1.000000 0.000000 0.000000
f 121//41 122//41 123//41
v -17.000000 19.055361 0.000122
v -24.885498 6.727685 0.000122
v -27.484169 13.001432 0.000122
vn 0.000000 0.000000 -1.000000
f 124//42 125//42 126//42
v -27.484169 13.001432 0.000122
v -24.885498 6.727563 82.000122
v -27.484169 13.001310 82.000122
vn -0.923880 -0.382683 -0.000001
f 127//43 128//43 129//43
v -17.000000 32.987213 82.000122
v -27.484169 13.001310 82.000122
v -17.000000 19.055239 82.000122
vn 0.000000 0.000000 1.000000
f 130//44 131//44 132//44
v -58.840057 33.000000 0.000122
v -50.000000 26.000000 0.000122
v -56.727684 25.114502 0.000122
vn 0.000000 0.000000 -1.000000
f 133//45 134//45 135//45
v -69.055359 32.999878 82.000122
v -56.727684 25.114380 82.000122
v -58.840057 32.999878 82.000122
vn 0.000000 0.000000 1.000000
f 136//46 137//46 138//46
v -56.727684 25.114502 0.000122
v -50.000000 25.999878 82.000122
v -56.727684 25.114380 82.000122
vn 0.130495 -0.991449 -0.000001
f 139//47 140//47 141//47
v -17.000000 8.840056 0.000122
v -17.000000 19.055361 0.000122
v -17.000000 19.055239 82.000122
vn 1.000000 0.000000 0.000000
f 142//48 143//48 144//48
v -17.000000 19.055361 0.000122
v -17.000000 8.840056 0.000122
v -24.885498 6.727685 0.000122
vn 0.000000 0.000000 -1.000000
f 145//49 146//49 147//49
v -27.484169 13.001432 0.000122
v -24.885498 6.727685 0.000122
v -24.885498 6.727563 82.000122
vn -0.923880 -0.382683 -0.000001
f 148//50 149//50 150//50
v -17.000000 19.055239 82.000122
v -27.484169 13.001310 82.000122
v -24.885498 6.727563 82.000122
vn 0.000000 0.000000 1.000000
f 151//51 152//51 153//51
v -69.055359 33.000000 0.000122
v -58.840057 33.000000 0.000122
v -56.727684 25.114502 0.000122
vn 0.000000 0.000000 -1.000000
f 154//52 155//52 156//52
v -69.055359 32.999878 82.000122
v -63.001434 22.515709 82.000122
v -56.727684 25.114380 82.000122
vn 0.000000 0.000000 1.000000
f 157//53 158//53 159//53
v -63.001434 22.515831 0.000122
v -56.727684 25.114502 0.000122
v -56.727684 25.114380 82.000122
vn 0.382683 -0.923880 -0.000001
f 160//54 161//54 162//54
v -17.000000 8.840056 0.000122
v -17.000000 19.055239 82.000122
v -17.000000 8.839934 82.000122
vn 1.000000 0.000000 0.000000
f 163//55 164//55 165//55
v -17.000000 8.840056 0.000122
v -24.000000 0.000000 0.000122
v -24.885498 6.727685 0.000122
vn 0.000000 0.000000 -1.000000
f 166//56 167//56 168//56
v -24.885498 6.727685 0.000122
v -24.000000 -0.000122 82.000122
v -24.885498 6.727563 82.000122
vn -0.991449 -0.130495 -0.000000
f 169//57 170//57 171//57
v -17.000000 19.055239 82.000122
v -24.885498 6.727563 82.000122
v -17.000000 8.839934 82.000122
vn 0.000000 0.000000 1.000000
f 172//58 173//58 174//58
v -69.055359 33.000000 0.000122
v -56.727684 25.114502 0.000122
v -63.001434 22.515831 0.000122
vn 0.000000 0.000000 -1.000000
f 175//59 176//59 177//59
v -82.987335 32.999878 82.000122
v -63.001434 22.515709 82.000122
v -69.055359 32.999878 82.000122
vn 0.000000 0.000000 1.000000
f 178//60 179//60 180//60
v -63.001434 22.515831 0.000122
v -56.727684 25.114380 82.000122
v -63.001434 22.515709 82.000122
vn 0.382683 -0.923880 -0.000001
f 181//61 182//61 183//61
v -17.000000 0.000000 0.000122
v -17.000000 8.840056 0.000122
v -17.000000 8.839934 82.000122
vn 1.000000 0.000000 0.000000
f 184//62 185//62 186//62
v -17.000000 8.840056 0.000122
v -17.000000 0.000000 0.000122
v -24.000000 0.000000 0.000122
vn 0.000000 0.000000 -1.000000
f 187//63 188//63 189//63
v -24.885498 6.727685 0.000122
v -24.000000 0.000000 0.000122
v -24.000000 -0.000122 82.000122
vn -0.991449 -0.130495 -0.000000
f 190//64 191//64 192//64
v -17.000000 8.839934 82.000122
v -24.885498 6.727563 82.000122
v -24.000000 -0.000122 82.000122
vn 0.000000 0.000000 1.000000
f 193//65 194//65 195//65
v -82.987335 33.000000 0.000122
v -69.055359 33.000000 0.000122
v -63.001434 22.515831 0.000122
vn 0.000000 0.000000 -1.000000
f 196//66 197//66 198//66
v -82.987335 33.000000 0.000122
v -83.000000 19.055262 82.000122
v -82.987335 32.999878 82.000122
vn -1.000000 0.000908 0.000000
f 199//67 200//67 201//67
v -82.987335 32.999878 82.000122
v -68.381248 18.388182 82.000122
v -63.001434 22.515709 82.000122
vn 0.000000 0.000000 1.000000
f 202//68 203//68 204//68
v -68.381248 18.388304 0.000122
v -63.001434 22.515831 0.000122
v -63.001434 22.515709 82.000122
vn 0.608710 -0.793392 -0.000001
f 205//69 206//69 207//69
v -17.000000 0.000000 0.000122
v -17.000000 8.839934 82.000122
v -17.000000 -0.000122 82.000122
vn 1.000000 0.000000 0.000000
f 208//70 209//70 210//70
v -24.000000 0.000000 0.000122
v -17.000000 0.000000 0.000122
v -17.000000 -0.000122 82.000122
vn 0.000000 -1.000000 -0.000001
f 211//71 212//71 213//71
v -24.000000 0.000000 0.000122
v -17.000000 -0.000122 82.000122
v -24.000000 -0.000122 82.000122
vn 0.000000 -1.000000 -0.000001
f 214//72 215//72 216//72
v -17.000000 8.839934 82.000122
v -24.000000 -0.000122 82.000122
v -17.000000 -0.000122 82.000122
vn 0.000000 0.000000 1.000000
f 217//73 218//73 219//73
v -82.987335 33.000000 0.000122
v -63.001434 22.515831 0.000122
v -68.381248 18.388304 0.000122
vn 0.000000 0.000000 -1.000000
f 220//74 221//74 222//74
v -82.987335 33.000000 0.000122
v -83.000000 19.055384 0.000122
v -83.000000 19.055262 82.000122
vn -1.000000 0.000908 0.000000
f 223//75 224//75 225//75
v -83.000000 19.055262 82.000122
v -68.381248 18.388182 82.000122
v -82.987335 32.999878 82.000122
vn 0.000000 0.000000 1.000000
f 226//76 227//76 228//76
v -68.381248 18.388304 0.000122
v -63.001434 22.515709 82.000122
v -68.381248 18.388182 82.000122
vn 0.608710 -0.793392 -0.000001
f 229//77 230//77 231//77
v -83.000000 19.055384 0.000122
v -82.987335 33.000000 0.000122
v -68.381248 18.388304 0.000122
vn 0.000000 0.000000 -1.000000
f 232//78 233//78 234//78
v -83.000000 19.055384 0.000122
v -83.000000 8.839942 82.000122
v -83.000000 19.055262 82.000122
vn -1.000000 0.000000 0.000000
f 235//79 236//79 237//79
v -83.000000 19.055262 82.000122
v -72.515823 13.001322 82.000122
v -68.381248 18.388182 82.000122
vn 0.000000 0.000000 1.000000
f 238//80 239//80 240//80
v -72.515823 13.001444 0.000122
v -68.381248 18.388304 0.000122
v -68.381248 18.388182 82.000122
vn 0.793276 -0.608863 -0.000001
f 241//81 242//81 243//81
v -83.000000 19.055384 0.000122
v -68.381248 18.388304 0.000122
v -72.515823 13.001444 0.000122
vn 0.000000 0.000000 -1.000000
f 244//82 245//82 246//82
v -83.000000 19.055384 0.000122
v -83.000000 8.840064 0.000122
v -83.000000 8.839942 82.000122
vn -1.000000 0.000000 0.000000
f 247//83 248//83 249//83
v -83.000000 8.839942 82.000122
v -72.515823 13.001322 82.000122
v -83.000000 19.055262 82.000122
vn 0.000000 0.000000 1.000000
f 250//84 251//84 252//84
v -72.515823 13.001444 0.000122
v -68.381248 18.388182 82.000122
v -72.515823 13.001322 82.000122
vn 0.793276 -0.608863 -0.000001
f 253//85 254//85 255//85
v -83.000000 8.840064 0.000122
v -83.000000 19.055384 0.000122
v -72.515823 13.001444 0.000122
vn 0.000000 0.000000 -1.000000
f 256//86 257//86 258//86
v -83.000000 8.840064 0.000122
v -83.000000 -0.000122 82.000122
v -83.000000 8.839942 82.000122
vn -1.000000 0.000000 0.000000
f 259//87 260//87 261//87
v -83.000000 8.839942 82.000122
v -75.114502 6.727569 82.000122
v -72.515823 13.001322 82.000122
vn 0.000000 0.000000 1.000000
f 262//88 263//88 264//88
v -75.114502 6.727691 0.000122
v -72.515823 13.001444 0.000122
v -72.515823 13.001322 82.000122
vn 0.923879 -0.382684 -0.000001
f 265//89 266//89 267//89
v -83.000000 8.840064 0.000122
v -72.515823 13.001444 0.000122
v -75.114502 6.727691 0.000122
vn 0.000000 0.000000 -1.000000
f 268//90 269//90 270//90
v -83.000000 8.840064 0.000122
v -83.000000 0.000000 0.000122
v -83.000000 -0.000122 82.000122
vn -1.000000 0.000000 0.000000
f 271//91 272//91 273//91
v -83.000000 -0.000122 82.000122
v -75.114502 6.727569 82.000122
v -83.000000 8.839942 82.000122
vn 0.000000 0.000000 1.000000
f 274//92 275//92 276//92
v -75.114502 6.727691 0.000122
v -72.515823 13.001322 82.000122
v -75.114502 6.727569 82.000122
vn 0.923879 -0.382684 -0.000001
f 277//93 278//93 279//93
v -83.000000 0.000000 0.000122
v -83.000000 8.840064 0.000122
v -75.114502 6.727691 0.000122
vn 0.000000 0.000000 -1.000000
f 280//94 281//94 282//94
v -83.000000 0.000000 0.000122
v -76.000000 -0.000122 82.000122
v -83.000000 -0.000122 82.000122
vn 0.000000 -1.000000 -0.000001
f 283//95 284//95 285//95
v -83.000000 -0.000122 82.000122
v -76.000000 -0.000122 82.000122
v -75.114502 6.727569 82.000122
vn 0.000000 0.000000 1.000000
f 286//96 287//96 288//96
v -76.000000 0.000000 0.000122
v -75.114502 6.727691 0.000122
v -75.114502 6.727569 82.000122
vn 0.991449 -0.130494 -0.000000
f 289//97 290//97 291//97
v -83.000000 0.000000 0.000122
v -75.114502 6.727691 0.000122
v -76.000000 0.000000 0.000122
vn 0.000000 0.000000 -1.000000
f 292//98 293//98 294//98
v -83.000000 0.000000 0.000122
v -76.000000 0.000000 0.000122
v -76.000000 -0.000122 82.000122
vn 0.000000 -1.000000 -0.000001
f 295//99 296//99 297//99
v -76.000000 0.000000 0.000122
v -75.114502 6.727569 82.000122
v -76.000000 -0.000122 82.000122
vn 0.991449 -0.130494 -0.000000
f 298//100 299//100 300//100
