# Octodraw OBJ export
v -6.000000 0.000000 7.000000
v -5.640000 0.800000 7.000000
v -5.640000 0.000000 7.000000
vn 0.0 0.0 -1.0
f 1//1 2//1 3//1
v -6.000000 0.000000 7.000000
v -6.000000 0.800000 7.000000
v -5.640000 0.800000 7.000000
vn 0.0 0.0 -1.0
f 4//2 5//2 6//2
v -6.000000 0.000000 7.360000
v -5.640000 0.800000 7.360000
v -6.000000 0.800000 7.360000
vn 0.0 0.0 1.0
f 7//3 8//3 9//3
v -6.000000 0.000000 7.360000
v -5.640000 0.000000 7.360000
v -5.640000 0.800000 7.360000
vn 0.0 0.0 1.0
f 10//4 11//4 12//4
v -6.000000 0.000000 7.000000
v -6.000000 0.800000 7.360000
v -6.000000 0.800000 7.000000
vn -1.0 0.0 0.0
f 13//5 14//5 15//5
v -6.000000 0.000000 7.000000
v -6.000000 0.000000 7.360000
v -6.000000 0.800000 7.360000
vn -1.0 0.0 0.0
f 16//6 17//6 18//6
v -5.640000 0.000000 7.000000
v -5.640000 0.800000 7.360000
v -5.640000 0.000000 7.360000
vn 1.0 0.0 0.0
f 19//7 20//7 21//7
v -5.640000 0.000000 7.000000
v -5.640000 0.800000 7.000000
v -5.640000 0.800000 7.360000
vn 1.0 0.0 0.0
f 22//8 23//8 24//8
v -6.000000 0.000000 7.000000
v -5.640000 0.000000 7.360000
v -6.000000 0.000000 7.360000
vn 0.0 -1.0 0.0
f 25//9 26//9 27//9
v -6.000000 0.000000 7.000000
v -5.640000 0.000000 7.000000
v -5.640000 0.000000 7.360000
vn 0.0 -1.0 0.0
f 28//10 29//10 30//10
v -6.000000 0.800000 7.000000
v -5.640000 0.800000 7.360000
v -5.640000 0.800000 7.000000
vn 0.0 1.0 0.0
f 31//11 32//11 33//11
v -6.000000 0.800000 7.000000
v -6.000000 0.800000 7.360000
v -5.640000 0.800000 7.360000
vn 0.0 1.0 0.0
f 34//12 35//12 36//12
v -5.820000 0.862305 7.336754
v -5.885869 0.862305 6.979110
v -5.820000 0.862305 6.966499
vn 0.0 -1.0 -0.0
f 37//13 38//13 39//13
v -5.820000 0.862305 7.336754
v -5.947293 0.862305 7.016116
v -5.885869 0.862305 6.979110
vn 0.0 -1.0 0.0
f 40//14 41//14 42//14
v -5.820000 0.862305 7.336754
v -6.000034 0.862305 7.074995
v -5.947293 0.862305 7.016116
vn 0.0 -1.0 0.0
f 43//15 44//15 45//15
v -5.820000 0.862305 7.336754
v -6.040446 0.862305 7.151606
v -6.000034 0.862305 7.074995
vn 0.0 -1.0 0.0
f 46//16 47//16 48//16
v -5.820000 0.862305 7.336754
v -6.065888 0.862305 7.240948
v -6.040446 0.862305 7.151606
vn 0.0 -0.99999994 0.0
f 49//17 50//17 51//17
v -5.820000 0.862305 7.336754
v -6.074558 0.862305 7.336754
v -6.065888 0.862305 7.240948
vn -0.0 -1.0 0.0
f 52//18 53//18 54//18
v -5.820000 0.862305 7.336754
v -6.065888 0.862305 7.432560
v -6.074558 0.862305 7.336754
vn 0.0 -1.0 0.0
f 55//19 56//19 57//19
v -5.820000 0.862305 7.336754
v -6.040446 0.862305 7.521902
v -6.065888 0.862305 7.432560
vn 0.0 -1.0 0.0
f 58//20 59//20 60//20
v -5.820000 0.862305 7.336754
v -5.999965 0.862305 7.598614
v -6.040446 0.862305 7.521902
vn 0.0 -1.0 0.0
f 61//21 62//21 63//21
v -5.820000 0.862305 7.336754
v -5.947293 0.862305 7.657393
v -5.999965 0.862305 7.598614
vn 0.0 -1.0 0.0
f 64//22 65//22 66//22
v -5.820000 0.862305 7.336754
v -5.885869 0.862305 7.694398
v -5.947293 0.862305 7.657393
vn 0.0 -0.99999994 0.0
f 67//23 68//23 69//23
v -5.820000 0.862305 7.336754
v -5.820000 0.862305 7.707009
v -5.885869 0.862305 7.694398
vn 0.0 -1.0 0.0
f 70//24 71//24 72//24
v -5.820000 0.862305 7.336754
v -5.754131 0.862305 7.694398
v -5.820000 0.862305 7.707009
vn 0.0 -1.0 0.0
f 73//25 74//25 75//25
v -5.820000 0.862305 7.336754
v -5.692706 0.862305 7.657393
v -5.754131 0.862305 7.694398
vn 0.0 -1.0 0.0
f 76//26 77//26 78//26
v -5.820000 0.862305 7.336754
v -5.639965 0.862305 7.598514
v -5.692706 0.862305 7.657393
vn 0.0 -1.0 0.0
f 79//27 80//27 81//27
v -5.820000 0.862305 7.336754
v -5.599554 0.862305 7.521902
v -5.639965 0.862305 7.598514
vn 0.0 -1.0 0.0
f 82//28 83//28 84//28
v -5.820000 0.862305 7.336754
v -5.574111 0.862305 7.432560
v -5.599554 0.862305 7.521902
vn 0.0 -1.0 0.0
f 85//29 86//29 87//29
v -5.820000 0.862305 7.336754
v -5.565441 0.862305 7.336754
v -5.574111 0.862305 7.432560
vn 0.0 -1.0 0.0
f 88//30 89//30 90//30
v -5.820000 0.862305 7.336754
v -5.574111 0.862305 7.240948
v -5.565441 0.862305 7.336754
vn 0.0 -1.0 0.0
f 91//31 92//31 93//31
v -5.820000 0.862305 7.336754
v -5.599554 0.862305 7.151606
v -5.574111 0.862305 7.240948
vn 0.0 -0.99999994 0.0
f 94//32 95//32 96//32
v -5.820000 0.862305 7.336754
v -5.640034 0.862305 7.074894
v -5.599554 0.862305 7.151606
vn 0.0 -1.0 0.0
f 97//33 98//33 99//33
v -5.820000 0.862305 7.336754
v -5.692707 0.862305 7.016116
v -5.640034 0.862305 7.074894
vn 0.0 -1.0 0.0
f 100//34 101//34 102//34
v -5.820000 0.862305 7.336754
v -5.754131 0.862305 6.979110
v -5.692707 0.862305 7.016116
vn 0.0 -0.99999994 0.0
f 103//35 104//35 105//35
v -5.820000 0.862305 7.336754
v -5.820000 0.862305 6.966499
v -5.754131 0.862305 6.979110
vn 0.0 -1.0 0.0
f 106//36 107//36 108//36
v -5.820000 1.043935 7.180000
v -5.820000 1.043935 6.925442
v -5.885869 1.043935 6.934112
vn 0.0 1.0 0.0
f 109//37 110//37 111//37
v -5.820000 1.043935 7.180000
v -5.885869 1.043935 6.934112
v -5.947293 1.043935 6.959554
vn 0.0 1.0 0.0
f 112//38 113//38 114//38
v -5.820000 1.043935 7.180000
v -5.947293 1.043935 6.959554
v -6.000034 1.043935 7.000035
vn 0.0 1.0 0.0
f 115//39 116//39 117//39
v -5.820000 1.043935 7.180000
v -6.000034 1.043935 7.000035
v -6.040446 1.043935 7.052707
vn 0.0 1.0 0.0
f 118//40 119//40 120//40
v -5.820000 1.043935 7.180000
v -6.040446 1.043935 7.052707
v -6.065888 1.043935 7.114131
vn 0.0 1.0 0.0
f 121//41 122//41 123//41
v -5.820000 1.043935 7.180000
v -6.065888 1.043935 7.114131
v -6.074558 1.043935 7.180000
vn 0.0 1.0 0.0
f 124//42 125//42 126//42
v -5.820000 1.043935 7.180000
v -6.074558 1.043935 7.180000
v -6.065888 1.043935 7.245869
vn 0.0 1.0 0.0
f 127//43 128//43 129//43
v -5.820000 1.043935 7.180000
v -6.065888 1.043935 7.245869
v -6.040446 1.043935 7.307294
vn 0.0 1.0 0.0
f 130//44 131//44 132//44
v -5.820000 1.043935 7.180000
v -6.040446 1.043935 7.307294
v -5.999965 1.043935 7.360035
vn 0.0 1.0 0.0
f 133//45 134//45 135//45
v -5.820000 1.043935 7.180000
v -5.999965 1.043935 7.360035
v -5.947293 1.043935 7.400446
vn 0.0 1.0 0.0
f 136//46 137//46 138//46
v -5.820000 1.043935 7.180000
v -5.947293 1.043935 7.400446
v -5.885869 1.043935 7.425889
vn 0.0 1.0 0.0
f 139//47 140//47 141//47
v -5.820000 1.043935 7.180000
v -5.885869 1.043935 7.425889
v -5.820000 1.043935 7.434559
vn 0.0 1.0 -0.0
f 142//48 143//48 144//48
v -5.820000 1.043935 7.180000
v -5.820000 1.043935 7.434559
v -5.754131 1.043935 7.425889
vn 0.0 1.0 0.0
f 145//49 146//49 147//49
v -5.820000 1.043935 7.180000
v -5.754131 1.043935 7.425889
v -5.692706 1.043935 7.400446
vn 0.0 1.0 0.0
f 148//50 149//50 150//50
v -5.820000 1.043935 7.180000
v -5.692706 1.043935 7.400446
v -5.639965 1.043935 7.359966
vn 0.0 1.0 0.0
f 151//51 152//51 153//51
v -5.820000 1.043935 7.180000
v -5.639965 1.043935 7.359966
v -5.599554 1.043935 7.307293
vn 0.0 1.0 0.0
f 154//52 155//52 156//52
v -5.820000 1.043935 7.180000
v -5.599554 1.043935 7.307293
v -5.574111 1.043935 7.245869
vn 0.0 1.0 0.0
f 157//53 158//53 159//53
v -5.820000 1.043935 7.180000
v -5.574111 1.043935 7.245869
v -5.565441 1.043935 7.180000
vn 0.0 1.0 0.0
f 160//54 161//54 162//54
v -5.820000 1.043935 7.180000
v -5.565441 1.043935 7.180000
v -5.574111 1.043935 7.114131
vn -0.0 1.0 0.0
f 163//55 164//55 165//55
v -5.820000 1.043935 7.180000
v -5.574111 1.043935 7.114131
v -5.599554 1.043935 7.052707
vn 0.0 1.0 0.0
f 166//56 167//56 168//56
v -5.820000 1.043935 7.180000
v -5.599554 1.043935 7.052707
v -5.640034 1.043935 6.999966
vn 0.0 0.99999994 0.0
f 169//57 170//57 171//57
v -5.820000 1.043935 7.180000
v -5.640034 1.043935 6.999966
v -5.692707 1.043935 6.959554
vn 0.0 1.0 0.0
f 172//58 173//58 174//58
v -5.820000 1.043935 7.180000
v -5.692707 1.043935 6.959554
v -5.754131 1.043935 6.934112
vn 0.0 1.0 0.0
f 175//59 176//59 177//59
v -5.820000 1.043935 7.180000
v -5.754131 1.043935 6.934112
v -5.820000 1.043935 6.925442
vn 0.0 1.0 0.0
f 178//60 179//60 180//60
v -5.885869 0.862305 6.979110
v -5.820000 1.043935 6.925442
v -5.820000 0.862305 6.966499
vn -0.18356994 -0.21673597 -0.9588157
f 181//61 182//61 183//61
v -5.885869 0.862305 6.979110
v -5.885869 1.043935 6.934112
v -5.820000 1.043935 6.925442
vn -0.1267304 -0.238535 -0.9628294
f 184//62 185//62 186//62
v -5.947293 0.862305 7.016116
v -5.885869 1.043935 6.934112
v -5.885869 0.862305 6.979110
vn -0.50481355 -0.20758392 -0.83789754
f 187//63 188//63 189//63
v -5.947293 0.862305 7.016116
v -5.947293 1.043935 6.959554
v -5.885869 1.043935 6.934112
vn -0.36775953 -0.27649286 -0.88786525
f 190//64 191//64 192//64
v -6.000034 0.862305 7.074995
v -5.947293 1.043935 6.959554
v -5.947293 0.862305 7.016116
vn -0.7292882 -0.20343477 -0.6532634
f 193//65 194//65 195//65
v -6.000034 0.862305 7.074995
v -6.000034 1.043935 7.000035
v -5.947293 1.043935 6.959554
vn -0.57864374 -0.31114042 -0.7538986
f 196//66 197//66 198//66
v -6.040446 0.862305 7.151606
v -6.000034 1.043935 7.000035
v -6.000034 0.862305 7.074995
vn -0.8685331 -0.18908115 -0.45814696
f 199//67 200//67 201//67
v -6.040446 0.862305 7.151606
v -6.040446 1.043935 7.052707
v -6.000034 1.043935 7.000035
vn -0.75310004 -0.3146179 -0.5778026
f 202//68 203//68 204//68
v -6.065888 0.862305 7.240948
v -6.040446 1.043935 7.052707
v -6.040446 0.862305 7.151606
vn -0.9512433 -0.14750022 -0.27088735
f 205//69 206//69 207//69
v -6.065888 0.862305 7.240948
v -6.065888 1.043935 7.114131
v -6.040446 1.043935 7.052707
vn -0.89256996 -0.2581368 -0.36970824
f 208//70 209//70 210//70
v -6.074558 0.862305 7.336754
v -6.065888 1.043935 7.114131
v -6.065888 0.862305 7.240948
vn -0.9939643 -0.06280326 -0.089947976
f 211//71 212//71 213//71
v -6.074558 0.862305 7.336754
v -6.074558 1.043935 7.180000
v -6.065888 1.043935 7.114131
vn -0.98522 -0.111917004 -0.12967756
f 214//72 215//72 216//72
v -6.065888 0.862305 7.432560
v -6.074558 1.043935 7.180000
v -6.074558 0.862305 7.336754
vn -0.99293125 0.07754769 0.089854054
f 217//73 218//73 219//73
v -6.065888 0.862305 7.432560
v -6.065888 1.043935 7.245869
v -6.074558 1.043935 7.180000
vn -0.98264843 0.13294198 0.12933815
f 220//74 221//74 222//74
v -6.040446 0.862305 7.521902
v -6.065888 1.043935 7.245869
v -6.065888 0.862305 7.432560
vn -0.92577815 0.2709814 0.2636356
f 223//75 224//75 225//75
v -6.040446 0.862305 7.521902
v -6.040446 1.043935 7.307294
v -6.065888 1.043935 7.245869
vn -0.84182966 0.41199616 0.34868586
f 226//76 227//76 228//76
v -5.999965 0.862305 7.598614
v -6.040446 1.043935 7.307294
v -6.040446 0.862305 7.521902
vn -0.77446723 0.4828863 0.40868255
f 229//77 230//77 231//77
v -5.999965 0.862305 7.598614
v -5.999965 1.043935 7.360035
v -6.040446 1.043935 7.307294
vn -0.6195112 0.6245868 0.47549677
f 232//78 233//78 234//78
v -5.947293 0.862305 7.657393
v -5.999965 1.043935 7.360035
v -5.999965 0.862305 7.598614
vn -0.5600201 0.65919113 0.50184107
f 235//79 236//79 237//79
v -5.947293 0.862305 7.657393
v -5.947293 1.043935 7.400446
v -5.999965 1.043935 7.360035
vn -0.40492484 0.7466445 0.52778584
f 238//80 239//80 240//80
v -5.885869 0.862305 7.694398
v -5.947293 1.043935 7.400446
v -5.947293 0.862305 7.657393
vn -0.32845744 0.7712799 0.5452
f 241//81 242//81 243//81
v -5.885869 0.862305 7.694398
v -5.885869 1.043935 7.425889
v -5.947293 1.043935 7.400446
vn -0.22607635 0.8068506 0.54578537
f 244//82 245//82 246//82
v -5.820000 0.862305 7.707009
v -5.885869 1.043935 7.425889
v -5.885869 0.862305 7.694398
vn -0.10665864 0.82357067 0.55709547
f 247//83 248//83 249//83
v -5.820000 0.862305 7.707009
v -5.820000 1.043935 7.434559
v -5.885869 1.043935 7.425889
vn -0.07281658 0.8298462 0.55322057
f 250//84 251//84 252//84
v -5.754131 0.862305 7.694398
v -5.820000 1.043935 7.434559
v -5.820000 0.862305 7.707009
vn 0.10560409 0.8274025 0.5515914
f 253//85 254//85 255//85
v -5.754131 0.862305 7.694398
v -5.754131 1.043935 7.425889
v -5.820000 1.043935 7.434559
vn 0.07354703 0.82605225 0.5587741
f 256//86 257//86 258//86
v -5.692706 0.862305 7.657393
v -5.754131 1.043935 7.425889
v -5.754131 0.862305 7.694398
vn 0.3198162 0.784793 0.5308648
f 259//87 260//87 261//87
v -5.692706 0.862305 7.657393
v -5.692706 1.043935 7.400446
v -5.754131 1.043935 7.425889
vn 0.23254107 0.79419965 0.5614014
f 262//88 263//88 264//88
v -5.639965 0.862305 7.598514
v -5.692706 1.043935 7.400446
v -5.692706 0.862305 7.657393
vn 0.54167545 0.6864113 0.48520836
f 265//89 266//89 267//89
v -5.639965 0.862305 7.598514
v -5.639965 1.043935 7.359966
v -5.692706 1.043935 7.400446
vn 0.42161274 0.7214549 0.54931366
f 268//90 269//90 270//90
v -5.599554 0.862305 7.521902
v -5.639965 1.043935 7.359966
v -5.639965 0.862305 7.598514
vn 0.75417125 0.52247024 0.3978073
f 271//91 272//91 273//91
v -5.599554 0.862305 7.521902
v -5.599554 1.043935 7.307293
v -5.639965 1.043935 7.359966
vn 0.64410716 0.5838907 0.49416366
f 274//92 275//92 276//92
v -5.574111 0.862305 7.432560
v -5.599554 1.043935 7.307293
v -5.599554 0.862305 7.521902
vn 0.9150361 0.30790192 0.26058632
f 277//93 278//93 279//93
v -5.574111 0.862305 7.432560
v -5.574111 1.043935 7.245869
v -5.599554 1.043935 7.307293
vn 0.85975456 0.3660522 0.35612917
f 280//94 281//94 282//94
v -5.565441 0.862305 7.336754
v -5.574111 1.043935 7.245869
v -5.574111 0.862305 7.432560
vn 0.9916844 0.09224172 0.089741215
f 283//95 284//95 285//95
v -5.565441 0.862305 7.336754
v -5.565441 1.043935 7.180000
v -5.574111 1.043935 7.245869
vn 0.9852202 0.11191621 0.12967664
f 286//96 287//96 288//96
v -5.574111 0.862305 7.240948
v -5.565441 1.043935 7.180000
v -5.565441 0.862305 7.336754
vn 0.9929312 -0.07754807 -0.08985449
f 289//97 290//97 291//97
v -5.574111 0.862305 7.240948
v -5.574111 1.043935 7.114131
v -5.565441 1.043935 7.180000
vn 0.9873586 -0.0907397 -0.12995906
f 292//98 293//98 294//98
v -5.599554 0.862305 7.151606
v -5.574111 1.043935 7.114131
v -5.574111 0.862305 7.240948
vn 0.94464195 -0.1878328 -0.26901755
f 295//99 296//99 297//99
v -5.599554 0.862305 7.151606
v -5.599554 1.043935 7.052707
v -5.574111 1.043935 7.114131
vn 0.90444934 -0.20399581 -0.37464273
f 298//100 299//100 300//100
v -5.640034 0.862305 7.074894
v -5.599554 1.043935 7.052707
v -5.599554 0.862305 7.151606
vn 0.85717326 -0.24629208 -0.45232078
f 301//101 302//101 303//101
v -5.640034 0.862305 7.074894
v -5.640034 1.043935 6.999966
v -5.599554 1.043935 7.052707
vn 0.7693789 -0.24360658 -0.5905185
f 304//102 305//102 306//102
v -5.692707 0.862305 7.016116
v -5.640034 1.043935 6.999966
v -5.640034 0.862305 7.074894
vn 0.7180093 -0.26543558 -0.6434334
f 307//103 308//103 309//103
v -5.692707 0.862305 7.016116
v -5.692707 1.043935 6.959554
v -5.640034 1.043935 6.999966
vn 0.59094083 -0.23986009 -0.77023125
f 310//104 311//104 312//104
v -5.754131 0.862305 6.979110
v -5.692707 1.043935 6.959554
v -5.692707 0.862305 7.016116
vn 0.49862057 -0.2577312 -0.82761836
f 313//105 314//105 315//105
v -5.754131 0.862305 6.979110
v -5.754131 1.043935 6.934112
v -5.692707 1.043935 6.959554
vn 0.37303126 -0.22311622 -0.90059257
f 316//106 317//106 318//106
v -5.820000 0.862305 6.966499
v -5.754131 1.043935 6.934112
v -5.754131 0.862305 6.979110
vn 0.1827073 -0.23642612 -0.954317
f 319//107 320//107 321//107
v -5.820000 0.862305 6.966499
v -5.820000 1.043935 6.925442
v -5.754131 1.043935 6.934112
vn 0.12733777 -0.21868785 -0.9674506
f 322//108 323//108 324//108

