# Octodraw OBJ export
v -3.418322 0.600000 11.580000
v -3.778322 1.399999 11.580000
v -3.778322 0.600000 11.580000
vn 0.0 0.0 1.0
f 1//1 2//1 3//1
v -3.418322 0.600000 11.580000
v -3.418322 1.399999 11.580000
v -3.778322 1.399999 11.580000
vn 0.0 -0.0 1.0
f 4//2 5//2 6//2
v -3.418322 0.600000 11.220000
v -3.778322 1.399999 11.220000
v -3.418322 1.399999 11.220000
vn 0.0 0.0 -1.0
f 7//3 8//3 9//3
v -3.418322 0.600000 11.220000
v -3.778322 0.600000 11.220000
v -3.778322 1.399999 11.220000
vn 0.0 0.0 -1.0
f 10//4 11//4 12//4
v -3.418322 0.600000 11.580000
v -3.418322 1.399999 11.220000
v -3.418322 1.399999 11.580000
vn 1.0 -0.0 0.0
f 13//5 14//5 15//5
v -3.418322 0.600000 11.580000
v -3.418322 0.600000 11.220000
v -3.418322 1.399999 11.220000
vn 1.0 0.0 0.0
f 16//6 17//6 18//6
v -3.778322 0.600000 11.580000
v -3.778322 1.399999 11.220000
v -3.778322 0.600000 11.220000
vn -1.0 0.0 0.0
f 19//7 20//7 21//7
v -3.778322 0.600000 11.580000
v -3.778322 1.399999 11.580000
v -3.778322 1.399999 11.220000
vn -1.0 0.0 0.0
f 22//8 23//8 24//8
v -3.418322 0.600000 11.580000
v -3.778322 0.600000 11.220000
v -3.418322 0.600000 11.220000
vn 0.0 -1.0 -0.0
f 25//9 26//9 27//9
v -3.418322 0.600000 11.580000
v -3.778322 0.600000 11.580000
v -3.778322 0.600000 11.220000
vn -0.0 -1.0 0.0
f 28//10 29//10 30//10
v -3.418322 1.399999 11.580000
v -3.778322 1.399999 11.220000
v -3.778322 1.399999 11.580000
vn 0.0 1.0 0.0
f 31//11 32//11 33//11
v -3.418322 1.399999 11.580000
v -3.418322 1.399999 11.220000
v -3.778322 1.399999 11.220000
vn 0.0 1.0 0.0
f 34//12 35//12 36//12
v -3.598322 1.462305 11.243246
v -3.532454 1.462305 11.600890
v -3.598322 1.462305 11.613501
vn 0.0 -1.0 0.0
f 37//13 38//13 39//13
v -3.598322 1.462305 11.243246
v -3.471028 1.462305 11.563884
v -3.532454 1.462305 11.600890
vn 0.0 -0.99999994 0.0
f 40//14 41//14 42//14
v -3.598322 1.462305 11.243246
v -3.418287 1.462305 11.505005
v -3.471028 1.462305 11.563884
vn 0.0 -1.0 0.0
f 43//15 44//15 45//15
v -3.598322 1.462305 11.243246
v -3.377876 1.462305 11.428394
v -3.418287 1.462305 11.505005
vn 0.0 -1.0 0.0
f 46//16 47//16 48//16
v -3.598322 1.462305 11.243246
v -3.352433 1.462305 11.339052
v -3.377876 1.462305 11.428394
vn 0.0 -0.99999994 0.0
f 49//17 50//17 51//17
v -3.598322 1.462305 11.243246
v -3.343763 1.462305 11.243246
v -3.352433 1.462305 11.339052
vn 0.0 -1.0 0.0
f 52//18 53//18 54//18
v -3.598322 1.462305 11.243246
v -3.352433 1.462305 11.147440
v -3.343763 1.462305 11.243246
vn 0.0 -1.0 0.0
f 55//19 56//19 57//19
v -3.598322 1.462305 11.243246
v -3.377876 1.462305 11.058098
v -3.352433 1.462305 11.147440
vn 0.0 -0.99999994 0.0
f 58//20 59//20 60//20
v -3.598322 1.462305 11.243246
v -3.418357 1.462305 10.981386
v -3.377876 1.462305 11.058098
vn 0.0 -1.0 0.0
f 61//21 62//21 63//21
v -3.598322 1.462305 11.243246
v -3.471028 1.462305 10.922607
v -3.418357 1.462305 10.981386
vn 0.0 -1.0 0.0
f 64//22 65//22 66//22
v -3.598322 1.462305 11.243246
v -3.532454 1.462305 10.885601
v -3.471028 1.462305 10.922607
vn 0.0 -1.0 0.0
f 67//23 68//23 69//23
v -3.598322 1.462305 11.243246
v -3.598322 1.462305 10.872992
v -3.532454 1.462305 10.885601
vn 0.0 -1.0 0.0
f 70//24 71//24 72//24
v -3.598322 1.462305 11.243246
v -3.664191 1.462305 10.885601
v -3.598322 1.462305 10.872992
vn 0.0 -0.99999994 -0.0
f 73//25 74//25 75//25
v -3.598322 1.462305 11.243246
v -3.725616 1.462305 10.922607
v -3.664191 1.462305 10.885601
vn 0.0 -0.99999994 0.0
f 76//26 77//26 78//26
v -3.598322 1.462305 11.243246
v -3.778357 1.462305 10.981486
v -3.725616 1.462305 10.922607
vn 0.0 -1.0 0.0
f 79//27 80//27 81//27
v -3.598322 1.462305 11.243246
v -3.818769 1.462305 11.058098
v -3.778357 1.462305 10.981486
vn 0.0 -1.0 0.0
f 82//28 83//28 84//28
v -3.598322 1.462305 11.243246
v -3.844211 1.462305 11.147440
v -3.818769 1.462305 11.058098
vn 0.0 -1.0 0.0
f 85//29 86//29 87//29
v -3.598322 1.462305 11.243246
v -3.852880 1.462305 11.243246
v -3.844211 1.462305 11.147440
vn -0.0 -1.0 0.0
f 88//30 89//30 90//30
v -3.598322 1.462305 11.243246
v -3.844211 1.462305 11.339052
v -3.852880 1.462305 11.243246
vn 0.0 -1.0 0.0
f 91//31 92//31 93//31
v -3.598322 1.462305 11.243246
v -3.818769 1.462305 11.428394
v -3.844211 1.462305 11.339052
vn 0.0 -1.0 0.0
f 94//32 95//32 96//32
v -3.598322 1.462305 11.243246
v -3.778288 1.462305 11.505106
v -3.818769 1.462305 11.428394
vn 0.0 -1.0 0.0
f 97//33 98//33 99//33
v -3.598322 1.462305 11.243246
v -3.725616 1.462305 11.563884
v -3.778288 1.462305 11.505106
vn 0.0 -1.0 0.0
f 100//34 101//34 102//34
v -3.598322 1.462305 11.243246
v -3.664191 1.462305 11.600890
v -3.725616 1.462305 11.563884
vn 0.0 -1.0 0.0
f 103//35 104//35 105//35
v -3.598322 1.462305 11.243246
v -3.598322 1.462305 11.613501
v -3.664191 1.462305 11.600890
vn 0.0 -0.99999994 0.0
f 106//36 107//36 108//36
v -3.598322 1.643934 11.400000
v -3.598322 1.643934 11.654558
v -3.532454 1.643934 11.645888
vn 0.0 1.0 0.0
f 109//37 110//37 111//37
v -3.598322 1.643934 11.400000
v -3.532454 1.643934 11.645888
v -3.471028 1.643934 11.620445
vn 0.0 1.0 0.0
f 112//38 113//38 114//38
v -3.598322 1.643934 11.400000
v -3.471028 1.643934 11.620445
v -3.418287 1.643934 11.579966
vn 0.0 1.0 0.0
f 115//39 116//39 117//39
v -3.598322 1.643934 11.400000
v -3.418287 1.643934 11.579966
v -3.377876 1.643934 11.527293
vn 0.0 1.0 0.0
f 118//40 119//40 120//40
v -3.598322 1.643934 11.400000
v -3.377876 1.643934 11.527293
v -3.352433 1.643934 11.465868
vn 0.0 1.0 0.0
f 121//41 122//41 123//41
v -3.598322 1.643934 11.400000
v -3.352433 1.643934 11.465868
v -3.343763 1.643934 11.400000
vn 0.0 1.0 0.0
f 124//42 125//42 126//42
v -3.598322 1.643934 11.400000
v -3.343763 1.643934 11.400000
v -3.352433 1.643934 11.334131
vn -0.0 1.0 0.0
f 127//43 128//43 129//43
v -3.598322 1.643934 11.400000
v -3.352433 1.643934 11.334131
v -3.377876 1.643934 11.272706
vn 0.0 1.0 0.0
f 130//44 131//44 132//44
v -3.598322 1.643934 11.400000
v -3.377876 1.643934 11.272706
v -3.418357 1.643934 11.219965
vn 0.0 1.0 0.0
f 133//45 134//45 135//45
v -3.598322 1.643934 11.400000
v -3.418357 1.643934 11.219965
v -3.471028 1.643934 11.179554
vn 0.0 1.0 0.0
f 136//46 137//46 138//46
v -3.598322 1.643934 11.400000
v -3.471028 1.643934 11.179554
v -3.532454 1.643934 11.154111
vn 0.0 1.0 0.0
f 139//47 140//47 141//47
v -3.598322 1.643934 11.400000
v -3.532454 1.643934 11.154111
v -3.598322 1.643934 11.145441
vn 0.0 1.0 0.0
f 142//48 143//48 144//48
v -3.598322 1.643934 11.400000
v -3.598322 1.643934 11.145441
v -3.664191 1.643934 11.154111
vn 0.0 1.0 0.0
f 145//49 146//49 147//49
v -3.598322 1.643934 11.400000
v -3.664191 1.643934 11.154111
v -3.725616 1.643934 11.179554
vn 0.0 1.0 0.0
f 148//50 149//50 150//50
v -3.598322 1.643934 11.400000
v -3.725616 1.643934 11.179554
v -3.778357 1.643934 11.220034
vn 0.0 1.0 0.0
f 151//51 152//51 153//51
v -3.598322 1.643934 11.400000
v -3.778357 1.643934 11.220034
v -3.818769 1.643934 11.272707
vn 0.0 1.0 0.0
f 154//52 155//52 156//52
v -3.598322 1.643934 11.400000
v -3.818769 1.643934 11.272707
v -3.844211 1.643934 11.334131
vn 0.0 1.0 0.0
f 157//53 158//53 159//53
v -3.598322 1.643934 11.400000
v -3.844211 1.643934 11.334131
v -3.852880 1.643934 11.400000
vn 0.0 1.0 0.0
f 160//54 161//54 162//54
v -3.598322 1.643934 11.400000
v -3.852880 1.643934 11.400000
v -3.844211 1.643934 11.465868
vn 0.0 1.0 0.0
f 163//55 164//55 165//55
v -3.598322 1.643934 11.400000
v -3.844211 1.643934 11.465868
v -3.818769 1.643934 11.527293
vn 0.0 1.0 0.0
f 166//56 167//56 168//56
v -3.598322 1.643934 11.400000
v -3.818769 1.643934 11.527293
v -3.778288 1.643934 11.580034
vn 0.0 1.0 0.0
f 169//57 170//57 171//57
v -3.598322 1.643934 11.400000
v -3.778288 1.643934 11.580034
v -3.725616 1.643934 11.620445
vn 0.0 1.0 0.0
f 172//58 173//58 174//58
v -3.598322 1.643934 11.400000
v -3.725616 1.643934 11.620445
v -3.664191 1.643934 11.645888
vn 0.0 1.0 0.0
f 175//59 176//59 177//59
v -3.598322 1.643934 11.400000
v -3.664191 1.643934 11.645888
v -3.598322 1.643934 11.654558
vn 0.0 1.0 -0.0
f 178//60 179//60 180//60
v -3.532454 1.462305 11.600890
v -3.598322 1.643934 11.654558
v -3.598322 1.462305 11.613501
vn 0.18356556 -0.21674196 0.9588152
f 181//61 182//61 183//61
v -3.532454 1.462305 11.600890
v -3.532454 1.643934 11.645888
v -3.598322 1.643934 11.654558
vn 0.1267322 -0.23853844 0.96282834
f 184//62 185//62 186//62
v -3.471028 1.462305 11.563884
v -3.532454 1.643934 11.645888
v -3.532454 1.462305 11.600890
vn 0.5048 -0.20758885 0.83790445
f 187//63 188//63 189//63
v -3.471028 1.462305 11.563884
v -3.471028 1.643934 11.620445
v -3.532454 1.643934 11.645888
vn 0.3677604 -0.27649188 0.8878652
f 190//64 191//64 192//64
v -3.418287 1.462305 11.505005
v -3.471028 1.643934 11.620445
v -3.471028 1.462305 11.563884
vn 0.7292883 -0.20343408 0.65326345
f 193//65 194//65 195//65
v -3.418287 1.462305 11.505005
v -3.418287 1.643934 11.579966
v -3.471028 1.643934 11.620445
vn 0.578634 -0.31114602 0.75390375
f 196//66 197//66 198//66
v -3.377876 1.462305 11.428394
v -3.418287 1.643934 11.579966
v -3.418287 1.462305 11.505005
vn 0.8685364 -0.18908072 0.45814073
f 199//67 200//67 201//67
v -3.377876 1.462305 11.428394
v -3.377876 1.643934 11.527293
v -3.418287 1.643934 11.579966
vn 0.7531074 -0.3146151 0.5777946
f 202//68 203//68 204//68
v -3.352433 1.462305 11.339052
v -3.377876 1.643934 11.527293
v -3.377876 1.462305 11.428394
vn 0.9512398 -0.14750592 0.27089652
f 205//69 206//69 207//69
v -3.352433 1.462305 11.339052
v -3.352433 1.643934 11.465868
v -3.377876 1.643934 11.527293
vn 0.8925678 -0.2581382 0.3697126
f 208//70 209//70 210//70
v -3.343763 1.462305 11.243246
v -3.352433 1.643934 11.465868
v -3.352433 1.462305 11.339052
vn 0.99396443 -0.06280255 0.08994755
f 211//71 212//71 213//71
v -3.343763 1.462305 11.243246
v -3.343763 1.643934 11.400000
v -3.352433 1.643934 11.465868
vn 0.9852197 -0.11191799 0.12967847
f 214//72 215//72 216//72
v -3.352433 1.462305 11.147440
v -3.343763 1.643934 11.400000
v -3.343763 1.462305 11.243246
vn 0.99293137 0.07754784 -0.08985406
f 217//73 218//73 219//73
v -3.352433 1.462305 11.147440
v -3.352433 1.643934 11.334131
v -3.343763 1.643934 11.400000
vn 0.9826478 0.13294482 -0.12933996
f 220//74 221//74 222//74
v -3.377876 1.462305 11.058098
v -3.352433 1.643934 11.334131
v -3.352433 1.462305 11.147440
vn 0.9257728 0.270992 -0.26364395
f 223//75 224//75 225//75
v -3.377876 1.462305 11.058098
v -3.377876 1.643934 11.272706
v -3.352433 1.643934 11.334131
vn 0.8418218 0.4120065 -0.34869292
f 226//76 227//76 228//76
v -3.418357 1.462305 10.981386
v -3.377876 1.643934 11.272706
v -3.377876 1.462305 11.058098
vn 0.7744626 0.48289162 -0.40868503
f 229//77 230//77 231//77
v -3.418357 1.462305 10.981386
v -3.418357 1.643934 11.219965
v -3.377876 1.643934 11.272706
vn 0.6195083 0.6245892 -0.47549722
f 232//78 233//78 234//78
v -3.471028 1.462305 10.922607
v -3.418357 1.643934 11.219965
v -3.418357 1.462305 10.981386
vn 0.560028 0.6591876 -0.50183684
f 235//79 236//79 237//79
v -3.471028 1.462305 10.922607
v -3.471028 1.643934 11.179554
v -3.418357 1.643934 11.219965
vn 0.40493178 0.74664277 -0.527783
f 238//80 239//80 240//80
v -3.532454 1.462305 10.885601
v -3.471028 1.643934 11.179554
v -3.471028 1.462305 10.922607
vn 0.32845795 0.7712805 -0.5451988
f 241//81 242//81 243//81
v -3.532454 1.462305 10.885601
v -3.532454 1.643934 11.154111
v -3.471028 1.643934 11.179554
vn 0.22606763 0.8068544 -0.54578334
f 244//82 245//82 246//82
v -3.598322 1.462305 10.872992
v -3.532454 1.643934 11.154111
v -3.532454 1.462305 10.885601
vn 0.106647596 0.8235738 -0.5570929
f 247//83 248//83 249//83
v -3.598322 1.462305 10.872992
v -3.598322 1.643934 11.145441
v -3.532454 1.643934 11.154111
vn 0.07281749 0.82984704 -0.5532193
f 250//84 251//84 252//84
v -3.664191 1.462305 10.885601
v -3.598322 1.643934 11.145441
v -3.598322 1.462305 10.872992
vn -0.10559239 0.8274042 -0.55159086
f 253//85 254//85 255//85
v -3.664191 1.462305 10.885601
v -3.664191 1.643934 11.154111
v -3.598322 1.643934 11.145441
vn -0.07354688 0.82605445 -0.5587709
f 256//86 257//86 258//86
v -3.725616 1.462305 10.922607
v -3.664191 1.643934 11.154111
v -3.664191 1.462305 10.885601
vn -0.31982452 0.78479284 -0.5308602
f 259//87 260//87 261//87
v -3.725616 1.462305 10.922607
v -3.725616 1.643934 11.179554
v -3.664191 1.643934 11.154111
vn -0.2325398 0.7942007 -0.56140053
f 262//88 263//88 264//88
v -3.778357 1.462305 10.981486
v -3.725616 1.643934 11.179554
v -3.725616 1.462305 10.922607
vn -0.54167473 0.68641245 -0.48520768
f 265//89 266//89 267//89
v -3.778357 1.462305 10.981486
v -3.778357 1.643934 11.220034
v -3.725616 1.643934 11.179554
vn -0.42160824 0.72145677 -0.54931456
f 268//90 269//90 270//90
v -3.818769 1.462305 11.058098
v -3.778357 1.643934 11.220034
v -3.778357 1.462305 10.981486
vn -0.75416136 0.5224795 -0.39781395
f 271//91 272//91 273//91
v -3.818769 1.462305 11.058098
v -3.818769 1.643934 11.272707
v -3.778357 1.643934 11.220034
vn -0.6441006 0.58389604 -0.49416575
f 274//92 275//92 276//92
v -3.844211 1.462305 11.147440
v -3.818769 1.643934 11.272707
v -3.818769 1.462305 11.058098
vn -0.91504127 0.30789363 -0.26057804
f 277//93 278//93 279//93
v -3.844211 1.462305 11.147440
v -3.844211 1.643934 11.334131
v -3.818769 1.643934 11.272707
vn -0.85976386 0.3660423 -0.35611686
f 280//94 281//94 282//94
v -3.852880 1.462305 11.243246
v -3.844211 1.643934 11.334131
v -3.844211 1.462305 11.147440
vn -0.9916861 0.09223243 -0.08973151
f 283//95 284//95 285//95
v -3.852880 1.462305 11.243246
v -3.852880 1.643934 11.400000
v -3.844211 1.643934 11.334131
vn -0.98522294 0.11190604 -0.12966463
f 286//96 287//96 288//96
v -3.844211 1.462305 11.339052
v -3.852880 1.643934 11.400000
v -3.852880 1.462305 11.243246
vn -0.99293286 -0.07753943 0.089844316
f 289//97 290//97 291//97
v -3.844211 1.462305 11.339052
v -3.844211 1.643934 11.465868
v -3.852880 1.643934 11.400000
vn -0.98736113 -0.09073002 0.12994602
f 292//98 293//98 294//98
v -3.818769 1.462305 11.428394
v -3.844211 1.643934 11.465868
v -3.844211 1.462305 11.339052
vn -0.944646 -0.18782537 0.26900864
f 295//99 296//99 297//99
v -3.818769 1.462305 11.428394
v -3.818769 1.643934 11.527293
v -3.844211 1.643934 11.465868
vn -0.9044591 -0.20398663 0.374624
f 298//100 299//100 300//100
v -3.778288 1.462305 11.505106
v -3.818769 1.643934 11.527293
v -3.818769 1.462305 11.428394
vn -0.8571663 -0.24629864 0.45233056
f 301//101 302//101 303//101
v -3.778288 1.462305 11.505106
v -3.778288 1.643934 11.580034
v -3.818769 1.643934 11.527293
vn -0.76937103 -0.24361254 0.5905263
f 304//102 305//102 306//102
v -3.725616 1.462305 11.563884
v -3.778288 1.643934 11.580034
v -3.778288 1.462305 11.505106
vn -0.718015 -0.2654359 0.6434269
f 307//103 308//103 309//103
v -3.725616 1.462305 11.563884
v -3.725616 1.643934 11.620445
v -3.778288 1.643934 11.580034
vn -0.5909388 -0.23985974 0.7702328
f 310//104 311//104 312//104
v -3.664191 1.462305 11.600890
v -3.725616 1.643934 11.620445
v -3.725616 1.462305 11.563884
vn -0.4986134 -0.25773162 0.82762253
f 313//105 314//105 315//105
v -3.664191 1.462305 11.600890
v -3.664191 1.643934 11.645888
v -3.725616 1.643934 11.620445
vn -0.3730367 -0.22311892 0.9005895
f 316//106 317//106 318//106
v -3.598322 1.462305 11.613501
v -3.664191 1.643934 11.645888
v -3.664191 1.462305 11.600890
vn -0.1827011 -0.23642981 0.95431715
f 319//107 320//107 321//107
v -3.598322 1.462305 11.613501
v -3.598322 1.643934 11.654558
v -3.664191 1.643934 11.645888
vn -0.12733804 -0.21869369 0.96744925
f 322//108 323//108 324//108
v -4.000000 -0.000000 11.440001
v -5.200000 1.200000 11.440001
v -5.200000 -0.000000 11.440001
vn 0.0 0.0 1.0
f 325//109 326//109 327//109
v -4.000000 -0.000000 11.440001
v -4.000000 1.200000 11.440001
v -5.200000 1.200000 11.440001
vn 0.0 -0.0 1.0
f 328//110 329//110 330//110
v -4.000000 -0.000000 11.220000
v -5.200000 1.200000 11.220000
v -4.000000 1.200000 11.220000
vn 0.0 0.0 -1.0
f 331//111 332//111 333//111
v -4.000000 -0.000000 11.220000
v -5.200000 -0.000000 11.220000
v -5.200000 1.200000 11.220000
vn 0.0 0.0 -1.0
f 334//112 335//112 336//112
v -4.000000 -0.000000 11.440001
v -4.000000 1.200000 11.220000
v -4.000000 1.200000 11.440001
vn 1.0 -0.0 0.0
f 337//113 338//113 339//113
v -4.000000 -0.000000 11.440001
v -4.000000 -0.000000 11.220000
v -4.000000 1.200000 11.220000
vn 1.0 0.0 0.0
f 340//114 341//114 342//114
v -5.200000 -0.000000 11.440001
v -5.200000 1.200000 11.220000
v -5.200000 -0.000000 11.220000
vn -1.0 0.0 0.0
f 343//115 344//115 345//115
v -5.200000 -0.000000 11.440001
v -5.200000 1.200000 11.440001
v -5.200000 1.200000 11.220000
vn -1.0 0.0 0.0
f 346//116 347//116 348//116
v -4.000000 -0.000000 11.440001
v -5.200000 -0.000000 11.220000
v -4.000000 -0.000000 11.220000
vn 0.0 -1.0 -0.0
f 349//117 350//117 351//117
v -4.000000 -0.000000 11.440001
v -5.200000 -0.000000 11.440001
v -5.200000 -0.000000 11.220000
vn -0.0 -1.0 0.0
f 352//118 353//118 354//118
v -4.000000 1.200000 11.440001
v -5.200000 1.200000 11.220000
v -5.200000 1.200000 11.440001
vn 0.0 1.0 0.0
f 355//119 356//119 357//119
v -4.000000 1.200000 11.440001
v -4.000000 1.200000 11.220000
v -5.200000 1.200000 11.220000
vn 0.0 1.0 0.0
f 358//120 359//120 360//120

