# Octodraw OBJ export
v -1.200001 0.000000 0.199998
v -1.199998 4.600000 -1.200002
v -1.200000 0.000000 -0.200002
vn -1.0 -7.774518E-8 -2.3841858E-6
f 1//1 2//1 3//1
v -1.200001 0.000000 0.199998
v -1.200003 4.600000 1.199998
v -1.199998 4.600000 -1.200002
vn -1.0 1.2957541E-8 -2.0861628E-6
f 4//2 5//2 6//2
v 1.199999 0.000000 0.200002
v 1.200002 4.600000 -1.199998
v 1.199997 4.600000 1.200002
vn 1.0 -1.295752E-8 2.0861628E-6
f 7//3 8//3 9//3
v 1.199999 0.000000 0.200002
v 1.200000 0.000000 -0.199998
v 1.200002 4.600000 -1.199998
vn 1.0 1.6844787E-7 2.6822088E-6
f 10//4 11//4 12//4
v -1.200001 0.000000 0.199998
v 1.199997 4.600000 1.200002
v -1.200003 4.600000 1.199998
vn -1.6038272E-6 -0.21242966 0.97717637
f 13//5 14//5 15//5
v -1.200001 0.000000 0.199998
v 1.199999 0.000000 0.200002
v 1.199997 4.600000 1.200002
vn -1.6259853E-6 -0.21242966 0.97717637
f 16//6 17//6 18//6
v -1.200000 0.000000 -0.200002
v 1.200002 4.600000 -1.199998
v 1.200000 0.000000 -0.199998
vn 1.6259853E-6 -0.21242966 -0.97717637
f 19//7 20//7 21//7
v -1.200000 0.000000 -0.200002
v -1.199998 4.600000 -1.200002
v 1.200002 4.600000 -1.199998
vn 1.6038273E-6 -0.21242966 -0.97717637
f 22//8 23//8 24//8
v -1.200001 0.000000 0.199998
v 1.200000 0.000000 -0.199998
v 1.199999 0.000000 0.200002
vn 0.0 -1.0 0.0
f 25//9 26//9 27//9
v -1.200001 0.000000 0.199998
v -1.200000 0.000000 -0.200002
v 1.200000 0.000000 -0.199998
vn 0.0 -0.99999994 0.0
f 28//10 29//10 30//10
v -1.200003 4.600000 1.199998
v 1.200002 4.600000 -1.199998
v -1.199998 4.600000 -1.200002
vn 0.0 1.0 0.0
f 31//11 32//11 33//11
v -1.200003 4.600000 1.199998
v 1.199997 4.600000 1.200002
v 1.200002 4.600000 -1.199998
vn -0.0 1.0 0.0
f 34//12 35//12 36//12
v -1.499999 5.600000 -1.000003
v 1.499998 5.600000 1.000003
v -1.500003 5.600000 0.999997
vn 0.0 -1.0 0.0
f 37//13 38//13 39//13
v -1.499999 5.600000 -1.000003
v 1.500001 5.600000 -0.999998
v 1.499998 5.600000 1.000003
vn 0.0 -0.99999994 0.0
f 40//14 41//14 42//14
v -1.499999 8.600000 -1.000003
v -1.500003 8.600000 0.999997
v 1.499998 8.600000 1.000003
vn 0.0 1.0 -0.0
f 43//15 44//15 45//15
v -1.499999 8.600000 -1.000003
v 1.499998 8.600000 1.000003
v 1.500001 8.600000 -0.999998
vn 0.0 0.99999994 0.0
f 46//16 47//16 48//16
v -1.499999 5.600000 -1.000003
v -1.500003 5.600000 0.999997
v -1.500003 8.600000 0.999997
vn -1.0 0.0 -1.9669533E-6
f 49//17 50//17 51//17
v -1.499999 5.600000 -1.000003
v -1.500003 8.600000 0.999997
v -1.499999 8.600000 -1.000003
vn -1.0 0.0 -1.9669533E-6
f 52//18 53//18 54//18
v -1.500003 5.600000 0.999997
v 1.499998 5.600000 1.000003
v 1.499998 8.600000 1.000003
vn -1.9868207E-6 0.0 1.0
f 55//19 56//19 57//19
v -1.500003 5.600000 0.999997
v 1.499998 8.600000 1.000003
v -1.500003 8.600000 0.999997
vn -1.9868207E-6 0.0 1.0
f 58//20 59//20 60//20
v 1.499998 5.600000 1.000003
v 1.500001 5.600000 -0.999998
v 1.500001 8.600000 -0.999998
vn 1.0 0.0 1.4901156E-6
f 61//21 62//21 63//21
v 1.499998 5.600000 1.000003
v 1.500001 8.600000 -0.999998
v 1.499998 8.600000 1.000003
vn 1.0 -0.0 1.4901156E-6
f 64//22 65//22 66//22
v 1.500001 5.600000 -0.999998
v -1.499999 5.600000 -1.000003
v -1.499999 8.600000 -1.000003
vn 1.66893E-6 0.0 -1.0
f 67//23 68//23 69//23
v 1.500001 5.600000 -0.999998
v -1.499999 8.600000 -1.000003
v 1.500001 8.600000 -0.999998
vn 1.66893E-6 0.0 -1.0
f 70//24 71//24 72//24
v 1.599999 1.600000 0.500003
v 1.600001 1.600000 -0.499997
v 2.600001 1.600000 -0.499995
vn 0.0 -1.0 0.0
f 73//25 74//25 75//25
v 1.599999 1.600000 0.500003
v 2.600001 1.600000 -0.499995
v 2.599999 1.600000 0.500005
vn 0.0 -1.0 0.0
f 76//26 77//26 78//26
v 1.599999 4.600001 0.500003
v 2.600001 4.600001 -0.499995
v 1.600001 4.600001 -0.499997
vn 0.0 1.0 0.0
f 79//27 80//27 81//27
v 1.599999 4.600001 0.500003
v 2.599999 4.600001 0.500005
v 2.600001 4.600001 -0.499995
vn -0.0 1.0 0.0
f 82//28 83//28 84//28
v 2.600001 1.600000 -0.499995
v 1.600001 1.600000 -0.499997
v 1.600001 4.600001 -0.499997
vn 1.9967551E-6 0.0 -0.99999994
f 85//29 86//29 87//29
v 2.600001 1.600000 -0.499995
v 1.600001 4.600001 -0.499997
v 2.600001 4.600001 -0.499995
vn 1.9967551E-6 0.0 -0.99999994
f 88//30 89//30 90//30
v 1.600001 1.600000 -0.499997
v 1.599999 1.600000 0.500003
v 1.599999 4.600001 0.500003
vn -1.0 0.0 -2.026558E-6
f 91//31 92//31 93//31
v 1.600001 1.600000 -0.499997
v 1.599999 4.600001 0.500003
v 1.600001 4.600001 -0.499997
vn -1.0 0.0 -2.026558E-6
f 94//32 95//32 96//32
v 1.599999 1.600000 0.500003
v 2.599999 1.600000 0.500005
v 2.599999 4.600001 0.500005
vn -2.026558E-6 0.0 1.0
f 97//33 98//33 99//33
v 1.599999 1.600000 0.500003
v 2.599999 4.600001 0.500005
v 1.599999 4.600001 0.500003
vn -2.026558E-6 0.0 1.0
f 100//34 101//34 102//34
v 2.599999 1.600000 0.500005
v 2.600001 1.600000 -0.499995
v 2.600001 4.600001 -0.499995
vn 1.0 0.0 2.1457672E-6
f 103//35 104//35 105//35
v 2.599999 1.600000 0.500005
v 2.600001 4.600001 -0.499995
v 2.599999 4.600001 0.500005
vn 1.0 -0.0 2.1457672E-6
f 106//36 107//36 108//36
v -2.600002 1.600000 0.499995
v -2.600000 1.600000 -0.500005
v -1.600000 1.600000 -0.500003
vn 0.0 -1.0 0.0
f 109//37 110//37 111//37
v -2.600002 1.600000 0.499995
v -1.600000 1.600000 -0.500003
v -1.600002 1.600000 0.499997
vn 0.0 -1.0 0.0
f 112//38 113//38 114//38
v -2.600002 4.600000 0.499995
v -1.600000 4.600000 -0.500003
v -2.600000 4.600000 -0.500005
vn 0.0 1.0 0.0
f 115//39 116//39 117//39
v -2.600002 4.600000 0.499995
v -1.600002 4.600000 0.499997
v -1.600000 4.600000 -0.500003
vn -0.0 1.0 0.0
f 118//40 119//40 120//40
v -1.600000 1.600000 -0.500003
v -2.600000 1.600000 -0.500005
v -2.600000 4.600000 -0.500005
vn 2.0265581E-6 0.0 -0.99999994
f 121//41 122//41 123//41
v -1.600000 1.600000 -0.500003
v -2.600000 4.600000 -0.500005
v -1.600000 4.600000 -0.500003
vn 2.0265581E-6 0.0 -0.99999994
f 124//42 125//42 126//42
v -2.600000 1.600000 -0.500005
v -2.600002 1.600000 0.499995
v -2.600002 4.600000 0.499995
vn -1.0 0.0 -2.1457672E-6
f 127//43 128//43 129//43
v -2.600000 1.600000 -0.500005
v -2.600002 4.600000 0.499995
v -2.600000 4.600000 -0.500005
vn -1.0 0.0 -2.1457672E-6
f 130//44 131//44 132//44
v -2.600002 1.600000 0.499995
v -1.600002 1.600000 0.499997
v -1.600002 4.600000 0.499997
vn -1.9967556E-6 0.0 1.0
f 133//45 134//45 135//45
v -2.600002 1.600000 0.499995
v -1.600002 4.600000 0.499997
v -2.600002 4.600000 0.499995
vn -1.9967556E-6 0.0 1.0
f 136//46 137//46 138//46
v -1.600002 1.600000 0.499997
v -1.600000 1.600000 -0.500003
v -1.600000 4.600000 -0.500003
vn 1.0 0.0 2.026558E-6
f 139//47 140//47 141//47
v -1.600002 1.600000 0.499997
v -1.600000 4.600000 -0.500003
v -1.600002 4.600000 0.499997
vn 1.0 -0.0 2.026558E-6
f 142//48 143//48 144//48

